<?xml version="1.0" ?><!DOCTYPE svg  PUBLIC '-//W3C//DTD SVG 1.1//EN'  'http://www.w3.org/Graphics/SVG/1.1/DTD/svg11.dtd'><svg height="100%" style="fill-rule:evenodd;clip-rule:evenodd;stroke-linejoin:round;stroke-miterlimit:2;" version="1.1" viewBox="0 0 32 32" width="100%" xml:space="preserve" xmlns="http://www.w3.org/2000/svg" xmlns:serif="http://www.serif.com/" xmlns:xlink="http://www.w3.org/1999/xlink"><g transform="matrix(1,0,0,1,-150,-100)"><g id="Icon" transform="matrix(0.5,0,0,0.5,0,0)"><g transform="matrix(3.5,0,0,4.02328,-427.5,153.575)"><path d="M214.639,23.854L210.048,23.854C209.384,23.854 208.844,23.384 208.844,22.806C208.844,22.806 208.844,13.694 208.844,13.694C208.844,13.116 209.384,12.646 210.048,12.646C210.048,12.646 223.952,12.646 223.952,12.646C224.616,12.646 225.156,13.116 225.156,13.694L225.156,22.806C225.156,23.384 224.616,23.854 223.952,23.854L219.361,23.854L217.122,26.288C217.092,26.321 217.047,26.339 217,26.339C216.953,26.339 216.908,26.321 216.878,26.288L214.639,23.854ZM217,25.987L219.164,23.633C219.194,23.601 219.238,23.583 219.286,23.583L223.952,23.583C224.444,23.583 224.844,23.235 224.844,22.806L224.844,13.694C224.844,13.265 224.444,12.917 223.952,12.917L210.048,12.917C209.556,12.917 209.156,13.265 209.156,13.694L209.156,22.806C209.156,23.235 209.556,23.583 210.048,23.583L214.714,23.583C214.762,23.583 214.806,23.601 214.836,23.633L217,25.987Z"/></g><g transform="matrix(4,0,0,4,-532,163)"><path d="M218,12.136L221,12.136C221.075,12.136 221.136,12.075 221.136,12C221.136,11.925 221.075,11.864 221,11.864L218,11.864C217.925,11.864 217.864,11.925 217.864,12C217.864,12.075 217.925,12.136 218,12.136Z"/></g><g transform="matrix(-4,0,0,-4,1196,290.995)"><path d="M218,12.136L221,12.136C221.075,12.136 221.136,12.075 221.136,12C221.136,11.925 221.075,11.864 221,11.864L218,11.864C217.925,11.864 217.864,11.925 217.864,12C217.864,12.075 217.925,12.136 218,12.136Z"/></g><g transform="matrix(2.66667,0,0,4,-237.483,166.989)"><path d="M218,12.136L221,12.136C221.113,12.136 221.205,12.075 221.205,12C221.205,11.925 221.113,11.864 221,11.864L218,11.864C217.887,11.864 217.795,11.925 217.795,12C217.795,12.075 217.887,12.136 218,12.136Z"/></g><g transform="matrix(-2.66667,0,0,-4,901.184,286.984)"><path d="M218,12.136L221,12.136C221.113,12.136 221.205,12.075 221.205,12C221.205,11.925 221.113,11.864 221,11.864L218,11.864C217.887,11.864 217.795,11.925 217.795,12C217.795,12.075 217.887,12.136 218,12.136Z"/></g><g transform="matrix(7.52317,0,0,7.52317,-905.893,-201.464)"><path d="M164.5,55.927C164.184,55.927 163.927,56.184 163.927,56.5C163.927,56.816 164.184,57.073 164.5,57.073C164.816,57.073 165.073,56.816 165.073,56.5C165.073,56.184 164.816,55.927 164.5,55.927ZM164.5,56.073C164.736,56.073 164.927,56.264 164.927,56.5C164.927,56.736 164.736,56.927 164.5,56.927C164.264,56.927 164.073,56.736 164.073,56.5C164.073,56.264 164.264,56.073 164.5,56.073Z"/></g><g transform="matrix(4.76375,0,0,4.76375,-439.048,-45.644)"><path d="M164.5,55.885C164.161,55.885 163.885,56.161 163.885,56.5C163.885,56.839 164.161,57.115 164.5,57.115C164.839,57.115 165.115,56.839 165.115,56.5C165.115,56.161 164.839,55.885 164.5,55.885ZM164.5,56.115C164.713,56.115 164.885,56.287 164.885,56.5C164.885,56.713 164.713,56.885 164.5,56.885C164.287,56.885 164.115,56.713 164.115,56.5C164.115,56.287 164.287,56.115 164.5,56.115Z"/></g><g transform="matrix(4.76375,0,0,4.76375,-464.852,-45.644)"><path d="M164.5,55.885C164.161,55.885 163.885,56.161 163.885,56.5C163.885,56.839 164.161,57.115 164.5,57.115C164.839,57.115 165.115,56.839 165.115,56.5C165.115,56.161 164.839,55.885 164.5,55.885ZM164.5,56.115C164.713,56.115 164.885,56.287 164.885,56.5C164.885,56.713 164.713,56.885 164.5,56.885C164.287,56.885 164.115,56.713 164.115,56.5C164.115,56.287 164.287,56.115 164.5,56.115Z"/></g><g transform="matrix(3.29139,0,0,3.29139,-214.701,35.5155)"><path d="M163.673,60.987C163.669,61.033 163.685,61.079 163.717,61.113C163.748,61.146 163.792,61.166 163.838,61.166L168.162,61.166C168.208,61.166 168.252,61.146 168.283,61.113C168.315,61.079 168.331,61.033 168.327,60.987C168.235,59.784 167.227,58.834 166,58.834C164.773,58.834 163.765,59.784 163.673,60.987ZM167.975,60.834C167.816,59.888 166.991,59.166 166,59.166C165.009,59.166 164.184,59.888 164.025,60.834L167.975,60.834Z"/></g><g transform="matrix(2.08414,0,0,2.08414,-1.37854,104.414)"><path d="M163.577,60.98C163.572,61.053 163.597,61.124 163.646,61.178C163.696,61.231 163.765,61.262 163.838,61.262L168.162,61.262C168.235,61.262 168.304,61.231 168.354,61.178C168.403,61.124 168.428,61.053 168.423,60.98C168.326,59.727 167.278,58.738 166,58.738C164.722,58.738 163.674,59.727 163.577,60.98ZM167.858,60.738C167.663,59.893 166.904,59.262 166,59.262C165.096,59.262 164.337,59.893 164.142,60.738L167.858,60.738Z"/></g><g transform="matrix(2.08414,0,0,2.08414,-27.183,104.414)"><path d="M163.577,60.98C163.572,61.053 163.597,61.124 163.646,61.178C163.696,61.231 163.765,61.262 163.838,61.262L168.162,61.262C168.235,61.262 168.304,61.231 168.354,61.178C168.403,61.124 168.428,61.053 168.423,60.98C168.326,59.727 167.278,58.738 166,58.738C164.722,58.738 163.674,59.727 163.577,60.98ZM167.858,60.738C167.663,59.893 166.904,59.262 166,59.262C165.096,59.262 164.337,59.893 164.142,60.738L167.858,60.738Z"/></g></g></g></svg>